<svg xmlns="http://www.w3.org/2000/svg" xmlns:xlink="http://www.w3.org/1999/xlink" fill="none" version="1.1" width="16" height="16" viewBox="0 0 16 16"><defs><clipPath id="master_svg0_2_08569"><rect x="0" y="0" width="16" height="16" rx="0"/></clipPath></defs><g clip-path="url(#master_svg0_2_08569)"><path d="M8.497189500000001,1Q6.7012405,1.00059683685,5.1606507,1.9233948Q3.6199999,2.8462294,2.7720291599999998,4.4293195999999995Q1.924057573,6.0124078,2.0095297107,7.8062639Q2.086777024,9.4274988,2.90684444,10.8051872L2.042395983,13.105094Q1.978558596,13.274937,2.010843802,13.453485Q2.0593133200000002,13.721537,2.28312758,13.876805Q2.5069416799999997,14.032074,2.77499282,13.983604L5.8479075,13.427953Q7.0937729,13.987209,8.4686685,13.994018Q9.954268899999999,14.001373,11.2954292,13.362365Q12.636596,12.723351,13.566766,11.56498Q14.496942,10.4066076,14.83125,8.959094Q15.165562,7.5115876,14.83757,6.0626283Q14.509572,4.6136745999999995,13.584464,3.4512525Q12.65935,2.2888329,11.3209867,1.64397824Q9.9826865,0.99915514467,8.497189500000001,1ZM3.9314336,5.0503469Q4.6077423,3.7877357,5.8365051999999995,3.0517185Q7.0652676,2.3157015999999997,8.4976025,2.3152558Q9.6826549,2.3145565,10.7500801,2.8288668Q11.8175106,3.3431787,12.55534,4.2702782Q13.293175,5.197381,13.55477,6.3530107Q13.816366,7.5086441,13.54973,8.6631188Q13.283097,9.8175974,12.541225,10.7414732Q11.7993584,11.665346,10.7296972,12.174996Q9.6600423,12.684643,8.475182499999999,12.678776Q7.2903252,12.672909,6.2257681,12.152692Q6.032124,12.058057,5.820020700000001,12.09641L3.681255,12.483146L4.2527838,10.9625626Q4.3712616,10.6473455,4.1847558,10.3669643Q3.3914635,9.1743755,3.3232942000000003,7.7436681Q3.255125,6.3129568,3.9314336,5.0503469ZM6.0444851,6.7558093Q5.7787793,6.4901037,5.4030154,6.4901037Q5.027251,6.4901037,4.7615454,6.7558093Q4.495840100000001,7.0215139,4.495839800000001,7.3972793Q4.495840100000001,7.7730446,4.7615452000000005,8.0387492Q5.027251,8.3044562,5.4030154,8.3044562Q5.7787793,8.3044562,6.0444851,8.0387492Q6.3101897,7.7730436,6.3101897,7.3972793Q6.3101897,7.0215144,6.0444851,6.7558093ZM9.0390973,6.7558093Q8.773391199999999,6.4901037,8.397628300000001,6.4901037Q8.0218644,6.4901037,7.7561584,6.7558093Q7.4904537,7.0215139,7.4904537,7.3972793Q7.4904537,7.7730446,7.7561584,8.0387492Q8.0218644,8.3044562,8.397628300000001,8.3044562Q8.773391199999999,8.3044562,9.0390973,8.0387492Q9.3048038,7.7730436,9.3048038,7.3972793Q9.3048038,7.0215144,9.0390973,6.7558093ZM12.033711,6.7558093Q11.7680073,6.4901037,11.3922434,6.4901037Q11.0164795,6.4901037,10.7507734,6.7558093Q10.4850655,7.0215154,10.4850655,7.3972793Q10.4850655,7.7730436,10.7507734,8.0387492Q11.0164776,8.3044562,11.3922434,8.3044562Q11.7680082,8.3044562,12.033711,8.0387492Q12.299417,7.7730446,12.299417,7.3972793Q12.299417,7.0215144,12.033711,6.7558093Z" fill-rule="evenodd" fill="#303030" fill-opacity="1"/></g></svg>