<svg xmlns="http://www.w3.org/2000/svg" xmlns:xlink="http://www.w3.org/1999/xlink" fill="none" version="1.1" width="38.746726989746094" height="38" viewBox="0 0 38.746726989746094 38"><path d="M38.349121,22.187225C38.138981,23.379902,37.817329,24.535711,37.395615,25.64188C33.780281,25.18523,30.578085,25.161121,27.365885,25.607843C27.983454,24.501673,28.37372,23.255106,28.476645,21.926283C28.899794,21.873812,29.3258,21.829847,29.751806,21.797232C34.086208,21.473886,37.331284,21.991518,38.349121,22.185806L38.349121,22.187225ZM26.263702,27.166412C24.589695,29.07243,22.128017,30.279285,19.378988,30.279285C18.611319,30.279285,17.865095,30.184271,17.153177,30.007002C12.861668,31.97967,10.021151,34.328156,9.1534109,35.095383C10.328503,35.824322,11.585076,36.434135,12.911702,36.90213C13.605033,36.222832,17.171762,32.91708,22.706984,31.005394C26.342327,29.750315,31.564476,29.273806,35.131207,29.86944C35.783081,28.951887,36.35347,27.973349,36.836658,26.946596C33.029762,26.495617,29.684618,26.550932,26.262272,27.164991L26.263702,27.166412ZM9.9425259,26.804775C8.790308,26.427546,7.4651141,26.257366,5.9869595,26.298491C3.9469898,26.3538,2.4145119,26.990559,1.9985124,27.180597C2.5603261,28.332148,3.2322147,29.419882,4.0056009,30.429611C4.6946449,29.961618,7.0534034,28.388868,9.6594744,26.957943C9.7538252,26.90547,9.848176,26.85725,9.9425259,26.806194L9.9425259,26.804775ZM11.525039,25.975149C11.54505,25.965225,11.566497,25.953882,11.586507,25.942533C10.868874,24.779636,10.412847,23.442303,10.288474,22.011377C10.142662,21.977339,9.9997082,21.940468,9.8524618,21.910685C5.2779002,20.966185,1.2694407,21.995775,0.38740805,22.25246C0.61756575,23.527393,0.97638297,24.758364,1.4467049,25.93261C2.0056593,25.677332,3.6953876,24.998034,5.949789,24.937052C8.0912571,24.87891,9.9653969,25.229193,11.525039,25.975149ZM38.040344,16.562777L33.76313,14.879411C33.465782,14.761703,33.232761,14.524867,33.122684,14.227055L32.985455,13.852658C32.855366,13.499534,32.913975,13.106701,33.139843,12.80605L35.648705,9.4747772C35.943192,9.0847797,35.946049,8.5501308,35.65728,8.15588L34.367825,6.3959355C34.086208,6.0116129,33.588722,5.8471045,33.131268,5.9860849L28.801157,7.3078165C28.460926,7.4113421,28.090668,7.3489432,27.804762,7.1390548L27.574602,6.9702935C27.278679,6.7533135,27.108566,6.4058633,27.121433,6.0399756L27.258671,1.8251826C27.274397,1.3302419,26.959898,0.88493752,26.485283,0.73177558L24.578266,0.11629089C24.125099,-0.029780339,23.630476,0.12338172,23.340275,0.49919605L20.626986,4.0233417C20.416843,4.2970481,20.090904,4.4573007,19.743526,4.4601378L19.283209,4.4629736C18.93297,4.4658103,18.601313,4.3041387,18.386883,4.0290151L15.599257,0.43395919C15.310489,0.060981166,14.815863,-0.090762727,14.364124,0.053890336L12.214081,0.747374C11.723744,0.9047907,11.404957,1.3742039,11.442123,1.8847443L11.733751,5.9307752C11.760915,6.3150988,11.586507,6.6866584,11.272007,6.9121461L11.040419,7.0780725C10.777381,7.2666898,10.444296,7.331924,10.128366,7.2581797L5.3379421,6.139245C4.8962111,6.0357199,4.4344659,6.2073174,4.1699996,6.573205L3.0620973,8.104825C2.7790463,8.4962397,2.7819049,9.0252161,3.0706749,9.4137926L5.6138458,12.832994C5.8282776,13.120882,5.8897481,13.492443,5.7796736,13.832804L5.6038394,14.374545C5.4966221,14.704976,5.2407327,14.967336,4.9105072,15.083627L0.74765515,16.548595C0.28162146,16.7131,-0.021443261,17.159824,0,17.649092L0.10578675,19.945107L0.11150498,19.945107C0.12865955,20.262774,0.15725055,20.577606,0.19013023,20.889603C1.4781555,20.530809,5.4837565,19.617508,10.129796,20.577606C10.17697,20.587536,10.224147,20.6003,10.271321,20.610224C10.590111,15.894818,14.542819,12.167876,19.376129,12.167876C24.209438,12.167876,28.132126,15.866457,28.476645,20.554914C28.864059,20.509537,29.255753,20.469824,29.646021,20.441462C33.963268,20.119539,37.192623,20.586113,38.532104,20.837132C38.542114,20.742115,38.554977,20.648516,38.563557,20.553497C38.577854,20.383316,38.590721,20.145065,38.602158,19.945107L38.607872,19.945107L38.743683,17.663275C38.772274,17.183935,38.487797,16.741465,38.037483,16.564194L38.040344,16.562777ZM12.40135,27.060047C11.716597,27.403246,11.023266,27.766294,10.325643,28.149202C7.8725348,29.496462,5.6438651,30.971354,4.8747668,31.490398C5.802546,32.538425,6.8475461,33.482925,7.9840403,34.309723C8.454361,33.868664,11.064722,31.510258,15.356233,29.353224C14.216883,28.797306,13.213335,28.01306,12.402781,27.060047L12.40135,27.060047ZM27.530289,31.279097C28.595299,32.518574,29.413004,34.186337,29.767534,34.974838C31.428673,33.915466,32.916832,32.612171,34.176266,31.113171C32.202053,30.879177,29.814711,30.952919,27.530287,31.28051L27.530289,31.279097ZM25.886303,31.562733C24.918497,31.759855,23.993574,32.00378,23.15872,32.293083C22.39105,32.558281,21.664841,32.853264,20.977226,33.166676C21.656263,33.889946,22.601196,35.211674,23.531834,37.550232C25.3202,37.158817,27.015646,36.52206,28.579578,35.675415C28.126413,34.633064,27.047098,32.527081,25.887733,31.562733L25.886303,31.562733ZM19.670618,33.803432C17.158895,35.115234,15.33765,36.567444,14.431314,37.364456C16.005249,37.777145,17.656382,37.999794,19.360405,37.999794C20.308197,37.999794,21.240261,37.931725,22.152317,37.799835C21.135906,35.333637,20.148087,34.230305,19.669186,33.803432L19.670618,33.803432Z" fill="#303030" fill-opacity="1"/></svg>
